# xmcd
#
# Track frame offsets:
#	150
#	24752
#	41179
#	63792
#	77894
#	92370
#	110747
#	130961
#	147538
#	168164
#	185416
#	204055
#	219957
#	237059
#
# Disc length: 3407
#
# Revision: 2
# Processed by: cddbd v1.5.1PL0 Copyright (c) Steve Scherf et al.
# Submitted via: ExactAudioCopy v0.90b3
# Normalized: r1:DSETVAR1
#
DISCID=b30d4d0e
DTITLE=Various Artist - Swingin' The Blues - Vol II
DYEAR=1900
DGENRE=Blues
TTITLE0=Solomon Burke - Good Rockin' Tonight (125 BPM)
TTITLE1=Tommy Ridgley - Heartbreak (134 BPM)
TTITLE2=Ernestine Anderson - I Love Being Here With You (120 BPM)
TTITLE3=Celinda Pink - How Do You Like Me Now (97 BPM)
TTITLE4=Celinda Pink - Victimized (129 BPM)
TTITLE5=Jimmy Vivino and The Rekoooperators - I Get Evil (123 BPM)
TTITLE6=Johnnie Johnson Band - Kansas City (121 BPM)
TTITLE7=Preston Shanon - Honky Tonk (115 BPM)
TTITLE8=Mike Morgan and The Crawl - Cause I Love You (110 BPM)
TTITLE9=Francine Reed - Been There, Done That (119 BPM)
TTITLE10=James Solberg Band - Cheaper To Keep Her (109 BPM)
TTITLE11=Al Miller - I Don't Play (129 BPM)
TTITLE12=Celinda Pink - Oh No (115 BPM)
TTITLE13=Big "Kat" Kaylor - She's Looking Good (100 BPM)
EXTD=Wanna Dance Productions - www.wannadance.com\n
EXTT0=
EXTT1=
EXTT2=
EXTT3=
EXTT4=
EXTT5=
EXTT6=
EXTT7=
EXTT8=
EXTT9=
EXTT10=
EXTT11=
EXTT12=
EXTT13=
PLAYORDER=
